<svg id="visual" viewBox="0 0 900 600" width="900" height="600" xmlns="http://www.w3.org/2000/svg" xmlns:xlink="http://www.w3.org/1999/xlink" version="1.1"><path d="M552 600L543.7 587.5C535.3 575 518.7 550 531.5 525C544.3 500 586.7 475 601 450C615.3 425 601.7 400 609.5 375C617.3 350 646.7 325 631.7 300C616.7 275 557.3 250 550.2 225C543 200 588 175 614.3 150C640.7 125 648.3 100 635.3 75C622.3 50 588.7 25 571.8 12.5L555 0L900 0L900 12.5C900 25 900 50 900 75C900 100 900 125 900 150C900 175 900 200 900 225C900 250 900 275 900 300C900 325 900 350 900 375C900 400 900 425 900 450C900 475 900 500 900 525C900 550 900 575 900 587.5L900 600Z" fill="#001220"></path><path d="M574 600L578.3 587.5C582.7 575 591.3 550 612.2 525C633 500 666 475 671.5 450C677 425 655 400 651.5 375C648 350 663 325 656.7 300C650.3 275 622.7 250 609.2 225C595.7 200 596.3 175 611.3 150C626.3 125 655.7 100 650.3 75C645 50 605 25 585 12.5L565 0L900 0L900 12.5C900 25 900 50 900 75C900 100 900 125 900 150C900 175 900 200 900 225C900 250 900 275 900 300C900 325 900 350 900 375C900 400 900 425 900 450C900 475 900 500 900 525C900 550 900 575 900 587.5L900 600Z" fill="#001b32"></path><path d="M675 600L670.8 587.5C666.7 575 658.3 550 655 525C651.7 500 653.3 475 649.7 450C646 425 637 400 629.7 375C622.3 350 616.7 325 631 300C645.3 275 679.7 250 674.5 225C669.3 200 624.7 175 624.7 150C624.7 125 669.3 100 669.5 75C669.7 50 625.3 25 603.2 12.5L581 0L900 0L900 12.5C900 25 900 50 900 75C900 100 900 125 900 150C900 175 900 200 900 225C900 250 900 275 900 300C900 325 900 350 900 375C900 400 900 425 900 450C900 475 900 500 900 525C900 550 900 575 900 587.5L900 600Z" fill="#002446"></path><path d="M688 600L695.8 587.5C703.7 575 719.3 550 713.7 525C708 500 681 475 665.5 450C650 425 646 400 646.8 375C647.7 350 653.3 325 663.5 300C673.7 275 688.3 250 681.3 225C674.3 200 645.7 175 644 150C642.3 125 667.7 100 671 75C674.3 50 655.7 25 646.3 12.5L637 0L900 0L900 12.5C900 25 900 50 900 75C900 100 900 125 900 150C900 175 900 200 900 225C900 250 900 275 900 300C900 325 900 350 900 375C900 400 900 425 900 450C900 475 900 500 900 525C900 550 900 575 900 587.5L900 600Z" fill="#002c59"></path><path d="M754 600L752.2 587.5C750.3 575 746.7 550 748.7 525C750.7 500 758.3 475 748.8 450C739.3 425 712.7 400 700 375C687.3 350 688.7 325 693.7 300C698.7 275 707.3 250 712 225C716.7 200 717.3 175 716.8 150C716.3 125 714.7 100 713.7 75C712.7 50 712.3 25 712.2 12.5L712 0L900 0L900 12.5C900 25 900 50 900 75C900 100 900 125 900 150C900 175 900 200 900 225C900 250 900 275 900 300C900 325 900 350 900 375C900 400 900 425 900 450C900 475 900 500 900 525C900 550 900 575 900 587.5L900 600Z" fill="#00336d"></path><path d="M759 600L764.2 587.5C769.3 575 779.7 550 781.5 525C783.3 500 776.7 475 763.7 450C750.7 425 731.3 400 727.2 375C723 350 734 325 742.8 300C751.7 275 758.3 250 753 225C747.7 200 730.3 175 721.7 150C713 125 713 100 713.2 75C713.3 50 713.7 25 713.8 12.5L714 0L900 0L900 12.5C900 25 900 50 900 75C900 100 900 125 900 150C900 175 900 200 900 225C900 250 900 275 900 300C900 325 900 350 900 375C900 400 900 425 900 450C900 475 900 500 900 525C900 550 900 575 900 587.5L900 600Z" fill="#103a81"></path><path d="M807 600L803 587.5C799 575 791 550 788.7 525C786.3 500 789.7 475 790.7 450C791.7 425 790.3 400 785.8 375C781.3 350 773.7 325 769.5 300C765.3 275 764.7 250 763.7 225C762.7 200 761.3 175 769.2 150C777 125 794 100 800.5 75C807 50 803 25 801 12.5L799 0L900 0L900 12.5C900 25 900 50 900 75C900 100 900 125 900 150C900 175 900 200 900 225C900 250 900 275 900 300C900 325 900 350 900 375C900 400 900 425 900 450C900 475 900 500 900 525C900 550 900 575 900 587.5L900 600Z" fill="#244094"></path><path d="M791 600L797 587.5C803 575 815 550 819.3 525C823.7 500 820.3 475 819.5 450C818.7 425 820.3 400 821.7 375C823 350 824 325 820.2 300C816.3 275 807.7 250 809 225C810.3 200 821.7 175 823.2 150C824.7 125 816.3 100 811.5 75C806.7 50 805.3 25 804.7 12.5L804 0L900 0L900 12.5C900 25 900 50 900 75C900 100 900 125 900 150C900 175 900 200 900 225C900 250 900 275 900 300C900 325 900 350 900 375C900 400 900 425 900 450C900 475 900 500 900 525C900 550 900 575 900 587.5L900 600Z" fill="#3945a7"></path><path d="M833 600L834.2 587.5C835.3 575 837.7 550 840.8 525C844 500 848 475 850.2 450C852.3 425 852.7 400 848.7 375C844.7 350 836.3 325 832.3 300C828.3 275 828.7 250 829.8 225C831 200 833 175 832.7 150C832.3 125 829.7 100 830.2 75C830.7 50 834.3 25 836.2 12.5L838 0L900 0L900 12.5C900 25 900 50 900 75C900 100 900 125 900 150C900 175 900 200 900 225C900 250 900 275 900 300C900 325 900 350 900 375C900 400 900 425 900 450C900 475 900 500 900 525C900 550 900 575 900 587.5L900 600Z" fill="#5049b9"></path></svg>