<svg id="visual" viewBox="0 0 900 600" width="900" height="600" xmlns="http://www.w3.org/2000/svg" xmlns:xlink="http://www.w3.org/1999/xlink" version="1.1"><path d="M502 600L492.5 587.5C483 575 464 550 478.7 525C493.3 500 541.7 475 558.2 450C574.7 425 559.3 400 568.2 375C577 350 610 325 592.7 300C575.3 275 507.7 250 499.7 225C491.7 200 543.3 175 573.5 150C603.7 125 612.3 100 597.3 75C582.3 50 543.7 25 524.3 12.5L505 0L900 0L900 12.5C900 25 900 50 900 75C900 100 900 125 900 150C900 175 900 200 900 225C900 250 900 275 900 300C900 325 900 350 900 375C900 400 900 425 900 450C900 475 900 500 900 525C900 550 900 575 900 587.5L900 600Z" fill="#001220"></path><path d="M527 600L532 587.5C537 575 547 550 570.8 525C594.7 500 632.3 475 638.5 450C644.7 425 619.3 400 615.5 375C611.7 350 629.3 325 622.2 300C615 275 583 250 567.5 225C552 200 553 175 570.2 150C587.3 125 620.7 100 614.5 75C608.3 50 562.7 25 539.8 12.5L517 0L900 0L900 12.5C900 25 900 50 900 75C900 100 900 125 900 150C900 175 900 200 900 225C900 250 900 275 900 300C900 325 900 350 900 375C900 400 900 425 900 450C900 475 900 500 900 525C900 550 900 575 900 587.5L900 600Z" fill="#001b32"></path><path d="M643 600L638.2 587.5C633.3 575 623.7 550 619.8 525C616 500 618 475 613.8 450C609.7 425 599.3 400 591 375C582.7 350 576.3 325 592.7 300C609 275 648 250 642 225C636 200 585 175 585 150C585 125 636 100 636.2 75C636.3 50 585.7 25 560.3 12.5L535 0L900 0L900 12.5C900 25 900 50 900 75C900 100 900 125 900 150C900 175 900 200 900 225C900 250 900 275 900 300C900 325 900 350 900 375C900 400 900 425 900 450C900 475 900 500 900 525C900 550 900 575 900 587.5L900 600Z" fill="#002446"></path><path d="M658 600L667 587.5C676 575 694 550 687.3 525C680.7 500 649.3 475 631.5 450C613.7 425 609.3 400 610.3 375C611.3 350 617.7 325 629.3 300C641 275 658 250 650.2 225C642.3 200 609.7 175 607.8 150C606 125 635 100 638.7 75C642.3 50 620.7 25 609.8 12.5L599 0L900 0L900 12.5C900 25 900 50 900 75C900 100 900 125 900 150C900 175 900 200 900 225C900 250 900 275 900 300C900 325 900 350 900 375C900 400 900 425 900 450C900 475 900 500 900 525C900 550 900 575 900 587.5L900 600Z" fill="#002c59"></path><path d="M733 600L731 587.5C729 575 725 550 727.2 525C729.3 500 737.7 475 726.8 450C716 425 686 400 671.5 375C657 350 658 325 663.5 300C669 275 679 250 684.5 225C690 200 691 175 690.5 150C690 125 688 100 686.8 75C685.7 50 685.3 25 685.2 12.5L685 0L900 0L900 12.5C900 25 900 50 900 75C900 100 900 125 900 150C900 175 900 200 900 225C900 250 900 275 900 300C900 325 900 350 900 375C900 400 900 425 900 450C900 475 900 500 900 525C900 550 900 575 900 587.5L900 600Z" fill="#00336d"></path><path d="M739 600L744.8 587.5C750.7 575 762.3 550 764.5 525C766.7 500 759.3 475 744.7 450C730 425 708 400 703.2 375C698.3 350 710.7 325 720.7 300C730.7 275 738.3 250 732.2 225C726 200 706 175 696.2 150C686.3 125 686.7 100 687 75C687.3 50 687.7 25 687.8 12.5L688 0L900 0L900 12.5C900 25 900 50 900 75C900 100 900 125 900 150C900 175 900 200 900 225C900 250 900 275 900 300C900 325 900 350 900 375C900 400 900 425 900 450C900 475 900 500 900 525C900 550 900 575 900 587.5L900 600Z" fill="#103a81"></path><path d="M793 600L788.5 587.5C784 575 775 550 772.5 525C770 500 774 475 775.2 450C776.3 425 774.7 400 769.3 375C764 350 755 325 750.2 300C745.3 275 744.7 250 743.7 225C742.7 200 741.3 175 750.5 150C759.7 125 779.3 100 786.7 75C794 50 789 25 786.5 12.5L784 0L900 0L900 12.5C900 25 900 50 900 75C900 100 900 125 900 150C900 175 900 200 900 225C900 250 900 275 900 300C900 325 900 350 900 375C900 400 900 425 900 450C900 475 900 500 900 525C900 550 900 575 900 587.5L900 600Z" fill="#244094"></path><path d="M775 600L781.8 587.5C788.7 575 802.3 550 807.3 525C812.3 500 808.7 475 807.7 450C806.7 425 808.3 400 810 375C811.7 350 813.3 325 809.2 300C805 275 795 250 796.5 225C798 200 811 175 812.5 150C814 125 804 100 798.5 75C793 50 792 25 791.5 12.5L791 0L900 0L900 12.5C900 25 900 50 900 75C900 100 900 125 900 150C900 175 900 200 900 225C900 250 900 275 900 300C900 325 900 350 900 375C900 400 900 425 900 450C900 475 900 500 900 525C900 550 900 575 900 587.5L900 600Z" fill="#3945a7"></path><path d="M823 600L824.3 587.5C825.7 575 828.3 550 832 525C835.7 500 840.3 475 842.8 450C845.3 425 845.7 400 841.2 375C836.7 350 827.3 325 822.8 300C818.3 275 818.7 250 820 225C821.3 200 823.7 175 823.3 150C823 125 820 100 820.5 75C821 50 825 25 827 12.5L829 0L900 0L900 12.5C900 25 900 50 900 75C900 100 900 125 900 150C900 175 900 200 900 225C900 250 900 275 900 300C900 325 900 350 900 375C900 400 900 425 900 450C900 475 900 500 900 525C900 550 900 575 900 587.5L900 600Z" fill="#5049b9"></path></svg>