<svg id="visual" viewBox="0 0 900 600" width="900" height="600" xmlns="http://www.w3.org/2000/svg" xmlns:xlink="http://www.w3.org/1999/xlink" version="1.1"><path d="M584 600L601 585.7C618 571.3 652 542.7 668.3 514.2C684.7 485.7 683.3 457.3 678.7 428.8C674 400.3 666 371.7 681.8 343C697.7 314.3 737.3 285.7 728 257C718.7 228.3 660.3 199.7 626.2 171.2C592 142.7 582 114.3 576.2 85.8C570.3 57.3 568.7 28.7 567.8 14.3L567 0L900 0L900 14.3C900 28.7 900 57.3 900 85.8C900 114.3 900 142.7 900 171.2C900 199.7 900 228.3 900 257C900 285.7 900 314.3 900 343C900 371.7 900 400.3 900 428.8C900 457.3 900 485.7 900 514.2C900 542.7 900 571.3 900 585.7L900 600Z" fill="#121C35" stroke-linecap="round" stroke-linejoin="miter"></path></svg>