<svg id="visual" viewBox="0 0 900 600" width="900" height="600" xmlns="http://www.w3.org/2000/svg" xmlns:xlink="http://www.w3.org/1999/xlink" version="1.1"><path d="M477 600L472.7 592.3C468.3 584.7 459.7 569.3 447.7 554C435.7 538.7 420.3 523.3 414.7 508C409 492.7 413 477.3 411.8 461.8C410.7 446.3 404.3 430.7 402.3 415.2C400.3 399.7 402.7 384.3 426.8 369C451 353.7 497 338.3 505.7 323C514.3 307.7 485.7 292.3 458 277C430.3 261.7 403.7 246.3 393.8 231C384 215.7 391 200.3 419.7 184.8C448.3 169.3 498.7 153.7 503.3 138.2C508 122.7 467 107.3 439.5 92C412 76.7 398 61.3 418.5 46C439 30.7 494 15.3 521.5 7.7L549 0L900 0L900 7.7C900 15.3 900 30.7 900 46C900 61.3 900 76.7 900 92C900 107.3 900 122.7 900 138.2C900 153.7 900 169.3 900 184.8C900 200.3 900 215.7 900 231C900 246.3 900 261.7 900 277C900 292.3 900 307.7 900 323C900 338.3 900 353.7 900 369C900 384.3 900 399.7 900 415.2C900 430.7 900 446.3 900 461.8C900 477.3 900 492.7 900 508C900 523.3 900 538.7 900 554C900 569.3 900 584.7 900 592.3L900 600Z" fill="#001122"></path><path d="M551 600L554.7 592.3C558.3 584.7 565.7 569.3 567.3 554C569 538.7 565 523.3 564 508C563 492.7 565 477.3 546.7 461.8C528.3 446.3 489.7 430.7 468 415.2C446.3 399.7 441.7 384.3 441.8 369C442 353.7 447 338.3 451.8 323C456.7 307.7 461.3 292.3 477.8 277C494.3 261.7 522.7 246.3 534.5 231C546.3 215.7 541.7 200.3 531.8 184.8C522 169.3 507 153.7 488.5 138.2C470 122.7 448 107.3 461 92C474 76.7 522 61.3 539 46C556 30.7 542 15.3 535 7.7L528 0L900 0L900 7.7C900 15.3 900 30.7 900 46C900 61.3 900 76.7 900 92C900 107.3 900 122.7 900 138.2C900 153.7 900 169.3 900 184.8C900 200.3 900 215.7 900 231C900 246.3 900 261.7 900 277C900 292.3 900 307.7 900 323C900 338.3 900 353.7 900 369C900 384.3 900 399.7 900 415.2C900 430.7 900 446.3 900 461.8C900 477.3 900 492.7 900 508C900 523.3 900 538.7 900 554C900 569.3 900 584.7 900 592.3L900 600Z" fill="#001c38"></path><path d="M570 600L561.3 592.3C552.7 584.7 535.3 569.3 539.7 554C544 538.7 570 523.3 575.3 508C580.7 492.7 565.3 477.3 562.7 461.8C560 446.3 570 430.7 574.8 415.2C579.7 399.7 579.3 384.3 581.8 369C584.3 353.7 589.7 338.3 590.3 323C591 307.7 587 292.3 587.3 277C587.7 261.7 592.3 246.3 597.7 231C603 215.7 609 200.3 607.5 184.8C606 169.3 597 153.7 592.7 138.2C588.3 122.7 588.7 107.3 571.3 92C554 76.7 519 61.3 499.5 46C480 30.7 476 15.3 474 7.7L472 0L900 0L900 7.7C900 15.3 900 30.7 900 46C900 61.3 900 76.7 900 92C900 107.3 900 122.7 900 138.2C900 153.7 900 169.3 900 184.8C900 200.3 900 215.7 900 231C900 246.3 900 261.7 900 277C900 292.3 900 307.7 900 323C900 338.3 900 353.7 900 369C900 384.3 900 399.7 900 415.2C900 430.7 900 446.3 900 461.8C900 477.3 900 492.7 900 508C900 523.3 900 538.7 900 554C900 569.3 900 584.7 900 592.3L900 600Z" fill="#00264e"></path><path d="M629 600L632.2 592.3C635.3 584.7 641.7 569.3 633.8 554C626 538.7 604 523.3 592.3 508C580.7 492.7 579.3 477.3 577.8 461.8C576.3 446.3 574.7 430.7 587.3 415.2C600 399.7 627 384.3 636.7 369C646.3 353.7 638.7 338.3 634.7 323C630.7 307.7 630.3 292.3 611 277C591.7 261.7 553.3 246.3 540.8 231C528.3 215.7 541.7 200.3 547.2 184.8C552.7 169.3 550.3 153.7 546.2 138.2C542 122.7 536 107.3 533.7 92C531.3 76.7 532.7 61.3 548.5 46C564.3 30.7 594.7 15.3 609.8 7.7L625 0L900 0L900 7.7C900 15.3 900 30.7 900 46C900 61.3 900 76.7 900 92C900 107.3 900 122.7 900 138.2C900 153.7 900 169.3 900 184.8C900 200.3 900 215.7 900 231C900 246.3 900 261.7 900 277C900 292.3 900 307.7 900 323C900 338.3 900 353.7 900 369C900 384.3 900 399.7 900 415.2C900 430.7 900 446.3 900 461.8C900 477.3 900 492.7 900 508C900 523.3 900 538.7 900 554C900 569.3 900 584.7 900 592.3L900 600Z" fill="#002f66"></path><path d="M676 600L672.8 592.3C669.7 584.7 663.3 569.3 654.5 554C645.7 538.7 634.3 523.3 637.8 508C641.3 492.7 659.7 477.3 669 461.8C678.3 446.3 678.7 430.7 678.3 415.2C678 399.7 677 384.3 662.3 369C647.7 353.7 619.3 338.3 604.2 323C589 307.7 587 292.3 590.5 277C594 261.7 603 246.3 616.3 231C629.7 215.7 647.3 200.3 657.5 184.8C667.7 169.3 670.3 153.7 667.2 138.2C664 122.7 655 107.3 638.5 92C622 76.7 598 61.3 593.3 46C588.7 30.7 603.3 15.3 610.7 7.7L618 0L900 0L900 7.7C900 15.3 900 30.7 900 46C900 61.3 900 76.7 900 92C900 107.3 900 122.7 900 138.2C900 153.7 900 169.3 900 184.8C900 200.3 900 215.7 900 231C900 246.3 900 261.7 900 277C900 292.3 900 307.7 900 323C900 338.3 900 353.7 900 369C900 384.3 900 399.7 900 415.2C900 430.7 900 446.3 900 461.8C900 477.3 900 492.7 900 508C900 523.3 900 538.7 900 554C900 569.3 900 584.7 900 592.3L900 600Z" fill="#00397e"></path><path d="M661 600L662 592.3C663 584.7 665 569.3 666.8 554C668.7 538.7 670.3 523.3 673.7 508C677 492.7 682 477.3 676 461.8C670 446.3 653 430.7 648.5 415.2C644 399.7 652 384.3 665 369C678 353.7 696 338.3 702.5 323C709 307.7 704 292.3 704.3 277C704.7 261.7 710.3 246.3 697 231C683.7 215.7 651.3 200.3 639.7 184.8C628 169.3 637 153.7 648.8 138.2C660.7 122.7 675.3 107.3 678.5 92C681.7 76.7 673.3 61.3 661 46C648.7 30.7 632.3 15.3 624.2 7.7L616 0L900 0L900 7.7C900 15.3 900 30.7 900 46C900 61.3 900 76.7 900 92C900 107.3 900 122.7 900 138.2C900 153.7 900 169.3 900 184.8C900 200.3 900 215.7 900 231C900 246.3 900 261.7 900 277C900 292.3 900 307.7 900 323C900 338.3 900 353.7 900 369C900 384.3 900 399.7 900 415.2C900 430.7 900 446.3 900 461.8C900 477.3 900 492.7 900 508C900 523.3 900 538.7 900 554C900 569.3 900 584.7 900 592.3L900 600Z" fill="#0d4196"></path><path d="M684 600L694.2 592.3C704.3 584.7 724.7 569.3 738.2 554C751.7 538.7 758.3 523.3 749.2 508C740 492.7 715 477.3 711.3 461.8C707.7 446.3 725.3 430.7 725.2 415.2C725 399.7 707 384.3 696.2 369C685.3 353.7 681.7 338.3 678.8 323C676 307.7 674 292.3 686.8 277C699.7 261.7 727.3 246.3 737.5 231C747.7 215.7 740.3 200.3 726.8 184.8C713.3 169.3 693.7 153.7 694.3 138.2C695 122.7 716 107.3 723.8 92C731.7 76.7 726.3 61.3 717.3 46C708.3 30.7 695.7 15.3 689.3 7.7L683 0L900 0L900 7.7C900 15.3 900 30.7 900 46C900 61.3 900 76.7 900 92C900 107.3 900 122.7 900 138.2C900 153.7 900 169.3 900 184.8C900 200.3 900 215.7 900 231C900 246.3 900 261.7 900 277C900 292.3 900 307.7 900 323C900 338.3 900 353.7 900 369C900 384.3 900 399.7 900 415.2C900 430.7 900 446.3 900 461.8C900 477.3 900 492.7 900 508C900 523.3 900 538.7 900 554C900 569.3 900 584.7 900 592.3L900 600Z" fill="#2649ae"></path><path d="M768 600L766 592.3C764 584.7 760 569.3 751.2 554C742.3 538.7 728.7 523.3 732.2 508C735.7 492.7 756.3 477.3 759.5 461.8C762.7 446.3 748.3 430.7 742.7 415.2C737 399.7 740 384.3 741.8 369C743.7 353.7 744.3 338.3 747 323C749.7 307.7 754.3 292.3 753 277C751.7 261.7 744.3 246.3 740.7 231C737 215.7 737 200.3 740.8 184.8C744.7 169.3 752.3 153.7 749.5 138.2C746.7 122.7 733.3 107.3 737 92C740.7 76.7 761.3 61.3 764.7 46C768 30.7 754 15.3 747 7.7L740 0L900 0L900 7.7C900 15.3 900 30.7 900 46C900 61.3 900 76.7 900 92C900 107.3 900 122.7 900 138.2C900 153.7 900 169.3 900 184.8C900 200.3 900 215.7 900 231C900 246.3 900 261.7 900 277C900 292.3 900 307.7 900 323C900 338.3 900 353.7 900 369C900 384.3 900 399.7 900 415.2C900 430.7 900 446.3 900 461.8C900 477.3 900 492.7 900 508C900 523.3 900 538.7 900 554C900 569.3 900 584.7 900 592.3L900 600Z" fill="#3d51c5"></path><path d="M813 600L815.5 592.3C818 584.7 823 569.3 816.3 554C809.7 538.7 791.3 523.3 792.3 508C793.3 492.7 813.7 477.3 817.3 461.8C821 446.3 808 430.7 803 415.2C798 399.7 801 384.3 804.7 369C808.3 353.7 812.7 338.3 806.7 323C800.7 307.7 784.3 292.3 781.8 277C779.3 261.7 790.7 246.3 799.8 231C809 215.7 816 200.3 815.3 184.8C814.7 169.3 806.3 153.7 799.7 138.2C793 122.7 788 107.3 787.7 92C787.3 76.7 791.7 61.3 794.3 46C797 30.7 798 15.3 798.5 7.7L799 0L900 0L900 7.7C900 15.3 900 30.7 900 46C900 61.3 900 76.7 900 92C900 107.3 900 122.7 900 138.2C900 153.7 900 169.3 900 184.8C900 200.3 900 215.7 900 231C900 246.3 900 261.7 900 277C900 292.3 900 307.7 900 323C900 338.3 900 353.7 900 369C900 384.3 900 399.7 900 415.2C900 430.7 900 446.3 900 461.8C900 477.3 900 492.7 900 508C900 523.3 900 538.7 900 554C900 569.3 900 584.7 900 592.3L900 600Z" fill="#5657dc"></path><path d="M858 600L854.5 592.3C851 584.7 844 569.3 838.5 554C833 538.7 829 523.3 834.3 508C839.7 492.7 854.3 477.3 860.2 461.8C866 446.3 863 430.7 855.8 415.2C848.7 399.7 837.3 384.3 836.2 369C835 353.7 844 338.3 848.3 323C852.7 307.7 852.3 292.3 850.8 277C849.3 261.7 846.7 246.3 848 231C849.3 215.7 854.7 200.3 854.3 184.8C854 169.3 848 153.7 844.8 138.2C841.7 122.7 841.3 107.3 837.3 92C833.3 76.7 825.7 61.3 822.2 46C818.7 30.7 819.3 15.3 819.7 7.7L820 0L900 0L900 7.7C900 15.3 900 30.7 900 46C900 61.3 900 76.7 900 92C900 107.3 900 122.7 900 138.2C900 153.7 900 169.3 900 184.8C900 200.3 900 215.7 900 231C900 246.3 900 261.7 900 277C900 292.3 900 307.7 900 323C900 338.3 900 353.7 900 369C900 384.3 900 399.7 900 415.2C900 430.7 900 446.3 900 461.8C900 477.3 900 492.7 900 508C900 523.3 900 538.7 900 554C900 569.3 900 584.7 900 592.3L900 600Z" fill="#715df2"></path></svg>